<svg width="304.70754394531247px" height="122.021240234375px" xmlns="http://www.w3.org/2000/svg" viewBox="97.64622802734377 13.9893798828125 304.70754394531247 122.021240234375" style="background: none;" preserveAspectRatio="xMidYMid"><defs><filter id="editing-jagged" x="-100%" y="-100%" width="300%" height="300%"><feTurbulence result="turb" baseFrequency="0.1" numOctaves="1" seed="1"></feTurbulence><feDisplacementMap in="SourceGraphic" in2="turb" scale="10"></feDisplacementMap></filter></defs><g filter="url(#editing-jagged)"><g transform="translate(149.45999717712402, 97.45718765258789)"><path d="M29.18 1.28L29.18 1.28L29.18 1.28Q20.99 1.28 20.22-10.37L20.22-10.37L9.22-10.37L9.22-10.37Q7.94-7.42 7.04-4.86L7.04-4.86L5.38 0L-3.58 0L16.58-42.24L30.34-42.24L33.02-11.14L33.02-11.14Q33.66-4.42 36.22-2.43L36.22-2.43L36.22-2.43Q34.37 1.28 29.18 1.28ZM14.72-23.17L11.20-15.04L20.03-15.04L19.26-31.49L19.26-33.22L14.72-23.17ZM39.30-0.32L39.30-0.32L47.36-42.24L47.36-42.24Q54.91-42.88 59.78-42.88L59.78-42.88L59.78-42.88Q64.64-42.88 67.78-42.46L67.78-42.46L67.78-42.46Q70.91-42.05 73.02-40.96L73.02-40.96L73.02-40.96Q77.25-38.91 77.25-33.28L77.25-33.28L77.25-33.28Q77.25-30.02 74.43-27.26L74.43-27.26L74.43-27.26Q71.81-24.77 68.93-24.19L68.93-24.19L68.93-24.19Q72-23.68 74.18-21.38L74.18-21.38L74.18-21.38Q76.48-18.94 76.48-15.17L76.48-15.17L76.48-15.17Q76.48-7.87 71.04-3.62L71.04-3.62L71.04-3.62Q65.60 0.64 54.91 0.64L54.91 0.64L54.91 0.64Q47.55 0.64 39.30-0.32ZM56.70-20.61L53.50-4.03L53.50-4.03Q54.08-3.97 54.21-3.97L54.21-3.97L54.78-3.97L54.78-3.97Q60.03-3.97 62.27-7.42L62.27-7.42L62.27-7.42Q63.94-10.11 63.94-15.04L63.94-15.04L63.94-15.04Q63.94-17.66 62.24-19.07L62.24-19.07L62.24-19.07Q60.54-20.48 56.70-20.61L56.70-20.61ZM66.43-33.22L66.43-33.22L66.43-33.22Q66.43-38.53 61.31-38.53L61.31-38.53L60.74-38.53L60.74-38.53Q60.48-38.53 60.10-38.46L60.10-38.46L57.54-24.96L58.18-24.96L58.18-24.96Q66.43-25.15 66.43-33.22ZM81.66-15.62L81.66-15.62L81.66-15.62Q81.66-27.71 87.94-35.33L87.94-35.33L87.94-35.33Q94.59-43.58 106.18-43.58L106.18-43.58L106.18-43.58Q114.56-43.58 118.78-39.52L118.78-39.52L118.78-39.52Q123.01-35.46 123.01-26.88L123.01-26.88L123.01-26.88Q123.01-13.82 116.35-6.21L116.35-6.21L116.35-6.21Q109.76 1.28 98.69 1.28L98.69 1.28L98.69 1.28Q90.05 1.28 85.86-3.04L85.86-3.04L85.86-3.04Q81.66-7.36 81.66-15.62ZM98.50-28.86L98.50-28.86L98.50-28.86Q95.62-17.34 95.62-8.26L95.62-8.26L95.62-8.26Q95.62-6.08 96.35-4.67L96.35-4.67L96.35-4.67Q97.09-3.26 99.04-3.26L99.04-3.26L99.04-3.26Q100.99-3.26 102.21-4.19L102.21-4.19L102.21-4.19Q103.42-5.12 104.38-7.23L104.38-7.23L104.38-7.23Q105.92-10.69 107.36-18.02L107.36-18.02L107.36-18.02Q108.80-25.34 108.93-28.38L108.93-28.38L108.93-28.38Q109.06-31.42 109.06-33.73L109.06-33.73L109.06-33.73Q109.06-36.03 108.35-37.50L108.35-37.50L108.35-37.50Q107.65-38.98 105.76-38.98L105.76-38.98L105.76-38.98Q103.87-38.98 102.59-37.82L102.59-37.82L102.59-37.82Q100.22-35.65 98.50-28.86ZM127.36-9.47L127.36-9.47L127.36-9.47Q127.36-11.97 128-15.17L128-15.17L133.18-42.24L147.33-42.24L142.21-14.98L142.21-14.98Q141.63-11.97 141.63-9.76L141.63-9.76L141.63-9.76Q141.63-7.55 142.56-6.40L142.56-6.40L142.56-6.40Q143.49-5.25 145.22-5.25L145.22-5.25L145.22-5.25Q146.94-5.25 148.03-5.70L148.03-5.70L148.03-5.70Q149.12-6.14 150.02-7.23L150.02-7.23L150.02-7.23Q151.74-9.41 152.83-14.98L152.83-14.98L158.02-42.24L167.68-42.24L162.56-15.04L162.56-15.04Q160.77-5.95 155.84-2.30L155.84-2.30L155.84-2.30Q151.04 1.28 141.57 1.28L141.57 1.28L141.57 1.28Q134.46 1.28 130.69-1.79L130.69-1.79L130.69-1.79Q127.36-4.48 127.36-9.47ZM174.08-31.17L174.08-31.17L174.08-31.17Q171.90-32.83 171.90-36.38L171.90-36.38L171.90-36.38Q171.90-39.94 174.24-41.79L174.24-41.79L174.24-41.79Q176.58-43.65 180.61-43.65L180.61-43.65L180.61-43.65Q183.17-43.65 189.25-42.75L189.25-42.75L193.60-42.11L193.60-42.11Q195.78-41.86 198.05-41.86L198.05-41.86L198.05-41.86Q200.32-41.86 201.86-42.82L201.86-42.82L201.86-42.82Q204.16-40.77 204.16-37.82L204.16-37.82L204.16-37.82Q204.16-34.88 201.54-32.77L201.54-32.77L201.54-32.77Q198.85-30.53 195.39-30.53L195.39-30.53L195.39-30.53Q193.73-30.53 191.04-30.98L191.04-30.98L191.04-30.98Q187.90-21.12 187.90-14.27L187.90-14.27L187.90-14.27Q187.90-7.42 191.36-3.84L191.36-3.84L191.36-3.84Q189.76-0.96 187.39 0.16L187.39 0.16L187.39 0.16Q185.02 1.28 181.47 1.28L181.47 1.28L181.47 1.28Q177.92 1.28 175.71-0.67L175.71-0.67L175.71-0.67Q173.50-2.62 173.50-6.66L173.50-6.66L173.50-6.66Q173.50-11.33 176.06-19.01L176.06-19.01L176.06-19.01Q178.62-26.62 182.46-32.45L182.46-32.45L182.46-32.45Q180.61-32.64 178.69-32.64L178.69-32.64L178.69-32.64Q174.72-32.64 174.08-31.17Z" fill="#444"></path></g></g><style>text {
  font-size: 64px;
  font-family: Arial Black;
  dominant-baseline: central;
  text-anchor: middle;
}</style></svg>