<svg width="416.227490234375px" height="122.021240234375px" xmlns="http://www.w3.org/2000/svg" viewBox="41.886254882812494 13.9893798828125 416.227490234375 122.021240234375" style="background: none;" preserveAspectRatio="xMidYMid"><defs><filter id="editing-jagged" x="-100%" y="-100%" width="300%" height="300%"><feTurbulence result="turb" baseFrequency="0.1" numOctaves="1" seed="1"></feTurbulence><feDisplacementMap in="SourceGraphic" in2="turb" scale="10"></feDisplacementMap></filter></defs><g filter="url(#editing-jagged)"><g transform="translate(103.53999814391136, 97.39218711853027)"><path d="M24.96-4.80L24.96-4.80L24.96-4.80Q24.96-9.28 26.75-18.24L26.75-18.24L17.28-18.24L13.76 0L0.38 0L8.51-42.24L22.02-42.24L18.30-23.36L27.78-23.36L31.30-42.24L44.80-42.24L44.80-42.24Q43.90-37.50 42.75-32.19L42.75-32.19L40.58-21.76L40.58-21.76Q38.14-9.60 38.14-4.29L38.14-4.29L38.14-4.29Q38.14-2.11 38.85-0.90L38.85-0.90L38.85-0.90Q35.65 1.28 31.90 1.28L31.90 1.28L31.90 1.28Q28.16 1.28 26.56-0.51L26.56-0.51L26.56-0.51Q24.96-2.30 24.96-4.80ZM74.43 1.28L74.43 1.28L74.43 1.28Q66.24 1.28 65.47-10.37L65.47-10.37L54.46-10.37L54.46-10.37Q53.18-7.42 52.29-4.86L52.29-4.86L50.62 0L41.66 0L61.82-42.24L75.58-42.24L78.27-11.14L78.27-11.14Q78.91-4.42 81.47-2.43L81.47-2.43L81.47-2.43Q79.62 1.28 74.43 1.28ZM59.97-23.17L56.45-15.04L65.28-15.04L64.51-31.49L64.51-33.22L59.97-23.17ZM86.78-39.68L86.78-39.68L86.78-39.68Q88.64-43.52 93.79-43.52L93.79-43.52L93.79-43.52Q98.94-43.52 101.34-40.54L101.34-40.54L101.34-40.54Q103.74-37.57 103.74-30.72L103.74-30.72L103.74-7.87L119.30-42.18L126.91-42.18L107.01 0L92.03 0L90.11-30.72L90.11-30.72Q89.92-34.11 88.99-36.42L88.99-36.42L88.99-36.42Q88.06-38.72 86.78-39.68ZM151.68-9.86L151.68-9.86L151.68-9.86Q152.90-8.32 152.90-5.82L152.90-5.82L152.90-5.82Q152.90-2.37 150.34-0.54L150.34-0.54L150.34-0.54Q147.78 1.28 143.74 1.28L143.74 1.28L143.74 1.28Q141.44 1.28 137.92 0.77L137.92 0.77L137.92 0.77Q131.01-0.32 128.90-0.32L128.90-0.32L128.90-0.32Q126.78-0.32 125.95-0.22L125.95-0.22L125.95-0.22Q125.12-0.13 123.78 0L123.78 0L131.65-42.24L159.23-42.24L159.23-42.24Q159.23-38.34 157.34-36.29L157.34-36.29L157.34-36.29Q155.46-34.24 151.74-34.24L151.74-34.24L151.74-34.24Q148.03-34.24 144.26-35.97L144.26-35.97L142.27-24.77L153.66-24.77L153.66-24.77Q153.66-21.38 152-19.49L152-19.49L152-19.49Q150.34-17.60 147.55-17.60L147.55-17.60L147.55-17.60Q144.77-17.60 143.04-18.24L143.04-18.24L143.04-18.24Q141.31-18.88 141.12-19.07L141.12-19.07L138.82-6.98L138.82-6.98Q140.35-6.78 143.23-6.78L143.23-6.78L143.23-6.78Q148.16-6.78 151.68-9.86ZM201.09-33.92L201.09-33.92L201.09-33.92Q195.90-33.92 192.13-35.65L192.13-35.65L190.08-25.28L202.43-25.28L202.43-25.28Q202.43-21.89 200.74-19.74L200.74-19.74L200.74-19.74Q199.04-17.60 195.97-17.60L195.97-17.60L195.97-17.60Q192.64-17.60 189.57-18.82L189.57-18.82L189.57-18.82Q188.93-19.07 188.86-19.14L188.86-19.14L185.22 0L171.26 0L179.39-42.24L207.94-42.24L207.94-42.24Q207.94-38.34 206.11-36.13L206.11-36.13L206.11-36.13Q204.29-33.92 201.09-33.92ZM207.55-9.47L207.55-9.47L207.55-9.47Q207.55-11.97 208.19-15.17L208.19-15.17L213.38-42.24L227.52-42.24L222.40-14.98L222.40-14.98Q221.82-11.97 221.82-9.76L221.82-9.76L221.82-9.76Q221.82-7.55 222.75-6.40L222.75-6.40L222.75-6.40Q223.68-5.25 225.41-5.25L225.41-5.25L225.41-5.25Q227.14-5.25 228.22-5.70L228.22-5.70L228.22-5.70Q229.31-6.14 230.21-7.23L230.21-7.23L230.21-7.23Q231.94-9.41 233.02-14.98L233.02-14.98L238.21-42.24L247.87-42.24L242.75-15.04L242.75-15.04Q240.96-5.95 236.03-2.30L236.03-2.30L236.03-2.30Q231.23 1.28 221.76 1.28L221.76 1.28L221.76 1.28Q214.66 1.28 210.88-1.79L210.88-1.79L210.88-1.79Q207.55-4.48 207.55-9.47ZM255.74 0L248.70 0L256.38-42.24L270.14-42.24L280.13-13.18L285.44-42.24L292.54-42.18L284.74 0L270.08 0L260.86-27.97L255.74 0Z" fill="#444"></path></g></g><style>text {
  font-size: 64px;
  font-family: Arial Black;
  dominant-baseline: central;
  text-anchor: middle;
}</style></svg>