<svg id="Layer_1" data-name="Layer 1" xmlns="http://www.w3.org/2000/svg" viewBox="0 0 184.3 198.91"><defs><style>.cls-1{fill:none;}.cls-1,.cls-2{stroke:#000;stroke-miterlimit:10;}.cls-2{fill:#fff;}</style></defs><line class="cls-1" x1="96.78" y1="197.41" x2="96.78" y2="167.41"/><path class="cls-1" d="M79.1,34.45c-23,8.38-40.94,28.77-45.54,53C28.91,111.85,38.86,137,58,152.67A71.93,71.93,0,0,0,96.5,168.5" transform="translate(0.28 -1.09)"/><line class="cls-1" x1="79.78" y1="1.41" x2="79.78" y2="33.41"/><line class="cls-1" x1="85.78" y1="1.41" x2="85.78" y2="157.41"/><path class="cls-1" d="M105.5,163.5a43.7,43.7,0,0,1-20-5" transform="translate(0.28 -1.09)"/><line class="cls-1" x1="105.78" y1="197.41" x2="105.78" y2="162.41"/><line class="cls-1" x1="119.78" y1="197.41" x2="119.78" y2="100.41"/><path class="cls-1" d="M165.5,24.5c3.87,3.22,18.58,16.16,18,33-.75,21.74-26.78,44.46-64,44" transform="translate(0.28 -1.09)"/><path class="cls-2" d="M95.5,163.5" transform="translate(0.28 -1.09)"/><line class="cls-1" x1="119.78" y1="35.41" x2="119.78" y2="66.41"/><line class="cls-1" x1="150.78" y1="52.41" x2="119.78" y2="35.41"/><line class="cls-1" x1="119.78" y1="66.41" x2="150.78" y2="52.41"/><path class="cls-1" d="M79.5,2.5C30.66,12.87-3.24,58.14.5,107.5c3.8,50.12,45.32,90.12,96,92" transform="translate(0.28 -1.09)"/><path class="cls-1" d="M85.5,2.5a106.49,106.49,0,0,1,80,22" transform="translate(0.28 -1.09)"/><path class="cls-1" d="M105.5,198.5a25,25,0,0,0,14,0" transform="translate(0.28 -1.09)"/><line class="cls-1" x1="96.78" y1="198.41" x2="96.78" y2="196.41"/></svg>