<svg id="Layer_1" data-name="Layer 1" xmlns="http://www.w3.org/2000/svg" viewBox="0 0 185.78 200.76"><defs><style>.cls-1,.cls-2{fill:none;stroke:#000;stroke-miterlimit:10;}.cls-2{stroke-width:1.25px;}</style></defs><path class="cls-1" d="M104.5,198v2C-12.89,192.52-26.82,30.4,87.5,3V35l-.4,0C16.49,62.46,29.76,160.17,104.5,169v29Z" transform="translate(-8.22 -0.42)"/><path class="cls-1" d="M135.5,197V166.5c20.58-7.12,45.3-25,58-41V154h-.15c-13.28,20.53-33.91,36.34-57.84,42.08" transform="translate(-8.22 -0.42)"/><path class="cls-2" d="M159.5,46.5a16,16,0,0,1-1,6c-3.54,9.37-16.32,14.9-32,15v-35c15.55-2.86,28.42.42,32,8A11.78,11.78,0,0,1,159.5,46.5ZM96.5,2.1C97,54,97,106,96.5,157.5a44,44,0,0,0,18,4v39a20,20,0,0,0,3,0,20.26,20.26,0,0,0,9-3V96.5c2,.18,34.06,2.67,51-21a50.19,50.19,0,0,0,9-27,37.45,37.45,0,0,0-3-18c-10.11-22.45-45-33.65-87-28" transform="translate(-8.22 -0.42)"/></svg>