<svg width="427.49001464843747px" height="122.021240234375px" xmlns="http://www.w3.org/2000/svg" viewBox="36.25499267578127 13.9893798828125 427.49001464843747 122.021240234375" style="background: none;" preserveAspectRatio="xMidYMid"><defs><filter id="editing-jagged" x="-100%" y="-100%" width="300%" height="300%"><feTurbulence result="turb" baseFrequency="0.1" numOctaves="1" seed="1"></feTurbulence><feDisplacementMap in="SourceGraphic" in2="turb" scale="10"></feDisplacementMap></filter></defs><g filter="url(#editing-jagged)"><g transform="translate(101.15626218914986, 102.89718818664551)"><path d="M26.11-42.69L26.11-42.69L26.11-42.69Q41.79-42.69 41.79-31.62L41.79-31.62L41.79-31.62Q41.79-25.54 37.89-21.89L37.89-21.89L37.89-21.89Q34.05-18.24 27.33-18.24L27.33-18.24L27.33-18.24Q24.19-18.24 21.76-20.03L21.76-20.03L21.76-20.03Q20.61-20.80 19.84-21.82L19.84-21.82L19.84-21.82Q24.51-21.82 26.98-24.67L26.98-24.67L26.98-24.67Q29.44-27.52 29.44-33.09L29.44-33.09L29.44-33.09Q29.44-38.66 23.94-38.66L23.94-38.66L22.40-38.66L22.40-38.66Q22.02-38.66 21.70-38.59L21.70-38.59L14.34 0L0.45 0L8.32-41.92L8.32-41.92Q15.17-42.56 19.14-42.62L19.14-42.62L19.14-42.62Q23.10-42.69 26.11-42.69ZM55.23 0L41.54 0L49.34-42.05L49.34-42.05Q55.68-42.75 64.93-42.75L64.93-42.75L64.93-42.75Q74.18-42.75 78.46-40.06L78.46-40.06L78.46-40.06Q82.75-37.38 82.75-31.97L82.75-31.97L82.75-31.97Q82.75-26.56 79.97-23.17L79.97-23.17L79.97-23.17Q77.18-19.78 72.38-18.69L72.38-18.69L72.38-18.69Q73.47-13.38 75.97-9.09L75.97-9.09L75.97-9.09Q78.27-5.06 80.96-3.78L80.96-3.78L80.96-3.78Q80-1.09 78.05 0.10L78.05 0.10L78.05 0.10Q76.10 1.28 73.31 1.28L73.31 1.28L73.31 1.28Q70.53 1.28 68.35-0.35L68.35-0.35L68.35-0.35Q66.18-1.98 64.45-4.99L64.45-4.99L64.45-4.99Q60.80-11.52 60.42-21.82L60.42-21.82L60.86-21.82L60.86-21.82Q65.60-21.95 67.97-24.42L67.97-24.42L67.97-24.42Q70.34-26.88 70.34-32.06L70.34-32.06L70.34-32.06Q70.34-38.53 64.90-38.78L64.90-38.78L63.49-38.78L63.49-38.78Q62.91-38.78 62.59-38.72L62.59-38.72L55.23 0ZM86.66-15.62L86.66-15.62L86.66-15.62Q86.66-27.71 92.93-35.33L92.93-35.33L92.93-35.33Q99.58-43.58 111.17-43.58L111.17-43.58L111.17-43.58Q119.55-43.58 123.78-39.52L123.78-39.52L123.78-39.52Q128-35.46 128-26.88L128-26.88L128-26.88Q128-13.82 121.34-6.21L121.34-6.21L121.34-6.21Q114.75 1.28 103.68 1.28L103.68 1.28L103.68 1.28Q95.04 1.28 90.85-3.04L90.85-3.04L90.85-3.04Q86.66-7.36 86.66-15.62ZM103.49-28.86L103.49-28.86L103.49-28.86Q100.61-17.34 100.61-8.26L100.61-8.26L100.61-8.26Q100.61-6.08 101.34-4.67L101.34-4.67L101.34-4.67Q102.08-3.26 104.03-3.26L104.03-3.26L104.03-3.26Q105.98-3.26 107.20-4.19L107.20-4.19L107.20-4.19Q108.42-5.12 109.38-7.23L109.38-7.23L109.38-7.23Q110.91-10.69 112.35-18.02L112.35-18.02L112.35-18.02Q113.79-25.34 113.92-28.38L113.92-28.38L113.92-28.38Q114.05-31.42 114.05-33.73L114.05-33.73L114.05-33.73Q114.05-36.03 113.34-37.50L113.34-37.50L113.34-37.50Q112.64-38.98 110.75-38.98L110.75-38.98L110.75-38.98Q108.86-38.98 107.58-37.82L107.58-37.82L107.58-37.82Q105.22-35.65 103.49-28.86ZM123.07 8.83L123.07 8.83L123.07 8.83Q126.34 8.45 128.38 4.22L128.38 4.22L128.38 4.22Q130.50-0.06 132.42-9.92L132.42-9.92L138.62-42.24L152.51-42.24L146.30-9.92L146.30-9.92Q143.94 2.62 140.03 7.55L140.03 7.55L140.03 7.55Q137.98 10.11 135.39 11.14L135.39 11.14L135.39 11.14Q132.80 12.16 129.98 12.16L129.98 12.16L129.98 12.16Q127.17 12.16 125.34 11.14L125.34 11.14L125.34 11.14Q123.52 10.11 123.07 8.83ZM181.25-9.86L181.25-9.86L181.25-9.86Q182.46-8.32 182.46-5.82L182.46-5.82L182.46-5.82Q182.46-2.37 179.90-0.54L179.90-0.54L179.90-0.54Q177.34 1.28 173.31 1.28L173.31 1.28L173.31 1.28Q171.01 1.28 167.49 0.77L167.49 0.77L167.49 0.77Q160.58-0.32 158.46-0.32L158.46-0.32L158.46-0.32Q156.35-0.32 155.52-0.22L155.52-0.22L155.52-0.22Q154.69-0.13 153.34 0L153.34 0L161.22-42.24L188.80-42.24L188.80-42.24Q188.80-38.34 186.91-36.29L186.91-36.29L186.91-36.29Q185.02-34.24 181.31-34.24L181.31-34.24L181.31-34.24Q177.60-34.24 173.82-35.97L173.82-35.97L171.84-24.77L183.23-24.77L183.23-24.77Q183.23-21.38 181.57-19.49L181.57-19.49L181.57-19.49Q179.90-17.60 177.12-17.60L177.12-17.60L177.12-17.60Q174.34-17.60 172.61-18.24L172.61-18.24L172.61-18.24Q170.88-18.88 170.69-19.07L170.69-19.07L168.38-6.98L168.38-6.98Q169.92-6.78 172.80-6.78L172.80-6.78L172.80-6.78Q177.73-6.78 181.25-9.86ZM221.76-13.25L221.76-13.25L221.76-13.25Q223.42-12.03 223.42-9.44L223.42-9.44L223.42-9.44Q223.42-6.85 222.30-5.02L222.30-5.02L222.30-5.02Q221.18-3.20 219.01-1.79L219.01-1.79L219.01-1.79Q214.34 1.22 206.18 1.22L206.18 1.22L206.18 1.22Q198.02 1.22 193.57-3.04L193.57-3.04L193.57-3.04Q189.12-7.30 189.12-14.85L189.12-14.85L189.12-14.85Q189.12-25.54 194.69-33.66L194.69-33.66L194.69-33.66Q198.91-39.68 206.46-42.24L206.46-42.24L206.46-42.24Q210.37-43.52 214.21-43.52L214.21-43.52L214.21-43.52Q218.05-43.52 220.42-43.01L220.42-43.01L220.42-43.01Q222.78-42.50 224.58-41.47L224.58-41.47L224.58-41.47Q228.48-39.23 228.48-35.65L228.48-35.65L228.48-35.65Q228.48-32.38 225.41-29.95L225.41-29.95L225.41-29.95Q222.59-27.78 220.29-27.78L220.29-27.78L220.29-27.78Q217.98-27.78 217.02-28.10L217.02-28.10L217.02-28.10Q217.28-30.40 217.28-31.90L217.28-31.90L217.28-31.90Q217.28-33.41 217.22-34.50L217.22-34.50L217.22-34.50Q217.15-35.58 216.83-36.61L216.83-36.61L216.83-36.61Q216.19-38.98 214.24-38.98L214.24-38.98L214.24-38.98Q212.29-38.98 210.34-37.15L210.34-37.15L210.34-37.15Q208.38-35.33 206.72-32.26L206.72-32.26L206.72-32.26Q202.94-25.28 202.94-17.02L202.94-17.02L202.94-17.02Q202.94-13.06 205.18-10.78L205.18-10.78L205.18-10.78Q207.42-8.51 212.22-8.51L212.22-8.51L212.22-8.51Q215.81-8.51 219.20-10.88L219.20-10.88L219.20-10.88Q220.67-11.90 221.76-13.25ZM233.86-31.17L233.86-31.17L233.86-31.17Q231.68-32.83 231.68-36.38L231.68-36.38L231.68-36.38Q231.68-39.94 234.02-41.79L234.02-41.79L234.02-41.79Q236.35-43.65 240.38-43.65L240.38-43.65L240.38-43.65Q242.94-43.65 249.02-42.75L249.02-42.75L253.38-42.11L253.38-42.11Q255.55-41.86 257.82-41.86L257.82-41.86L257.82-41.86Q260.10-41.86 261.63-42.82L261.63-42.82L261.63-42.82Q263.94-40.77 263.94-37.82L263.94-37.82L263.94-37.82Q263.94-34.88 261.31-32.77L261.31-32.77L261.31-32.77Q258.62-30.53 255.17-30.53L255.17-30.53L255.17-30.53Q253.50-30.53 250.82-30.98L250.82-30.98L250.82-30.98Q247.68-21.12 247.68-14.27L247.68-14.27L247.68-14.27Q247.68-7.42 251.14-3.84L251.14-3.84L251.14-3.84Q249.54-0.96 247.17 0.16L247.17 0.16L247.17 0.16Q244.80 1.28 241.25 1.28L241.25 1.28L241.25 1.28Q237.70 1.28 235.49-0.67L235.49-0.67L235.49-0.67Q233.28-2.62 233.28-6.66L233.28-6.66L233.28-6.66Q233.28-11.33 235.84-19.01L235.84-19.01L235.84-19.01Q238.40-26.62 242.24-32.45L242.24-32.45L242.24-32.45Q240.38-32.64 238.46-32.64L238.46-32.64L238.46-32.64Q234.50-32.64 233.86-31.17ZM286.85-29.57L286.85-29.57L286.85-29.57Q287.81-31.49 287.81-33.28L287.81-33.28L287.81-33.28Q287.81-35.07 287.62-36.06L287.62-36.06L287.62-36.06Q287.42-37.06 286.98-37.82L286.98-37.82L286.98-37.82Q286.02-39.49 284.10-39.49L284.10-39.49L284.10-39.49Q281.73-39.49 279.81-37.76L279.81-37.76L279.81-37.76Q277.76-35.97 277.76-33.15L277.76-33.15L277.76-33.15Q277.76-31.36 279.01-29.98L279.01-29.98L279.01-29.98Q280.26-28.61 282.18-27.33L282.18-27.33L282.18-27.33Q284.10-26.05 286.27-24.77L286.27-24.77L286.27-24.77Q288.45-23.49 290.37-21.95L290.37-21.95L290.37-21.95Q294.78-18.43 294.78-13.70L294.78-13.70L294.78-13.70Q294.78-10.50 293.09-7.78L293.09-7.78L293.09-7.78Q291.39-5.06 288.58-3.07L288.58-3.07L288.58-3.07Q282.43 1.28 274.30 1.28L274.30 1.28L274.30 1.28Q267.71 1.28 264.32-0.86L264.32-0.86L264.32-0.86Q260.93-3.01 260.93-6.27L260.93-6.27L260.93-6.27Q260.93-12.10 265.47-13.57L265.47-13.57L265.47-13.57Q266.75-14.02 268.70-14.02L268.70-14.02L268.70-14.02Q270.66-14.02 272.90-13.18L272.90-13.18L272.90-13.18Q271.87-10.56 271.87-8.19L271.87-8.19L271.87-8.19Q271.87-3.07 275.52-3.07L275.52-3.07L275.52-3.07Q277.89-3.07 279.84-4.80L279.84-4.80L279.84-4.80Q281.79-6.53 281.79-8.48L281.79-8.48L281.79-8.48Q281.79-10.43 280.54-11.84L280.54-11.84L280.54-11.84Q279.30-13.25 277.44-14.37L277.44-14.37L277.44-14.37Q275.58-15.49 273.44-16.58L273.44-16.58L273.44-16.58Q271.30-17.66 269.44-19.20L269.44-19.20L269.44-19.20Q265.09-22.72 265.09-28.35L265.09-28.35L265.09-28.35Q265.09-32 266.88-34.85L266.88-34.85L266.88-34.85Q268.67-37.70 271.55-39.62L271.55-39.62L271.55-39.62Q277.31-43.52 284.38-43.52L284.38-43.52L284.38-43.52Q291.46-43.52 294.88-41.41L294.88-41.41L294.88-41.41Q298.30-39.30 298.30-35.71L298.30-35.71L298.30-35.71Q298.30-32.58 295.87-30.59L295.87-30.59L295.87-30.59Q293.76-28.93 291.20-28.93L291.20-28.93L291.20-28.93Q288.64-28.93 286.85-29.57Z" fill="#444"></path></g></g><style>text {
  font-size: 64px;
  font-family: Arial Black;
  dominant-baseline: central;
  text-anchor: middle;
}</style></svg>