<svg width="644.0274658203125px" height="122.021240234375px" xmlns="http://www.w3.org/2000/svg" viewBox="-72.01373291015625 13.9893798828125 644.0274658203125 122.021240234375" style="background: none;" preserveAspectRatio="xMidYMid"><defs><filter id="editing-jagged" x="-100%" y="-100%" width="300%" height="300%"><feTurbulence result="turb" baseFrequency="0.1" numOctaves="1" seed="1"></feTurbulence><feDisplacementMap in="SourceGraphic" in2="turb" scale="10"></feDisplacementMap></filter></defs><g filter="url(#editing-jagged)"><g transform="translate(19.74624490737915, 97.45718765258789)"><path d="M6.21-31.17L6.21-31.17L6.21-31.17Q4.03-32.83 4.03-36.38L4.03-36.38L4.03-36.38Q4.03-39.94 6.37-41.79L6.37-41.79L6.37-41.79Q8.70-43.65 12.74-43.65L12.74-43.65L12.74-43.65Q15.30-43.65 21.38-42.75L21.38-42.75L25.73-42.11L25.73-42.11Q27.90-41.86 30.18-41.86L30.18-41.86L30.18-41.86Q32.45-41.86 33.98-42.82L33.98-42.82L33.98-42.82Q36.29-40.77 36.29-37.82L36.29-37.82L36.29-37.82Q36.29-34.88 33.66-32.77L33.66-32.77L33.66-32.77Q30.98-30.53 27.52-30.53L27.52-30.53L27.52-30.53Q25.86-30.53 23.17-30.98L23.17-30.98L23.17-30.98Q20.03-21.12 20.03-14.27L20.03-14.27L20.03-14.27Q20.03-7.42 23.49-3.84L23.49-3.84L23.49-3.84Q21.89-0.96 19.52 0.16L19.52 0.16L19.52 0.16Q17.15 1.28 13.60 1.28L13.60 1.28L13.60 1.28Q10.05 1.28 7.84-0.67L7.84-0.67L7.84-0.67Q5.63-2.62 5.63-6.66L5.63-6.66L5.63-6.66Q5.63-11.33 8.19-19.01L8.19-19.01L8.19-19.01Q10.75-26.62 14.59-32.45L14.59-32.45L14.59-32.45Q12.74-32.64 10.82-32.64L10.82-32.64L10.82-32.64Q6.85-32.64 6.21-31.17ZM61.57-9.86L61.57-9.86L61.57-9.86Q62.78-8.32 62.78-5.82L62.78-5.82L62.78-5.82Q62.78-2.37 60.22-0.54L60.22-0.54L60.22-0.54Q57.66 1.28 53.63 1.28L53.63 1.28L53.63 1.28Q51.33 1.28 47.81 0.77L47.81 0.77L47.81 0.77Q40.90-0.32 38.78-0.32L38.78-0.32L38.78-0.32Q36.67-0.32 35.84-0.22L35.84-0.22L35.84-0.22Q35.01-0.13 33.66 0L33.66 0L41.54-42.24L69.12-42.24L69.12-42.24Q69.12-38.34 67.23-36.29L67.23-36.29L67.23-36.29Q65.34-34.24 61.63-34.24L61.63-34.24L61.63-34.24Q57.92-34.24 54.14-35.97L54.14-35.97L52.16-24.77L63.55-24.77L63.55-24.77Q63.55-21.38 61.89-19.49L61.89-19.49L61.89-19.49Q60.22-17.60 57.44-17.60L57.44-17.60L57.44-17.60Q54.66-17.60 52.93-18.24L52.93-18.24L52.93-18.24Q51.20-18.88 51.01-19.07L51.01-19.07L48.70-6.98L48.70-6.98Q50.24-6.78 53.12-6.78L53.12-6.78L53.12-6.78Q58.05-6.78 61.57-9.86ZM102.08-13.25L102.08-13.25L102.08-13.25Q103.74-12.03 103.74-9.44L103.74-9.44L103.74-9.44Q103.74-6.85 102.62-5.02L102.62-5.02L102.62-5.02Q101.50-3.20 99.33-1.79L99.33-1.79L99.33-1.79Q94.66 1.22 86.50 1.22L86.50 1.22L86.50 1.22Q78.34 1.22 73.89-3.04L73.89-3.04L73.89-3.04Q69.44-7.30 69.44-14.85L69.44-14.85L69.44-14.85Q69.44-25.54 75.01-33.66L75.01-33.66L75.01-33.66Q79.23-39.68 86.78-42.24L86.78-42.24L86.78-42.24Q90.69-43.52 94.53-43.52L94.53-43.52L94.53-43.52Q98.37-43.52 100.74-43.01L100.74-43.01L100.74-43.01Q103.10-42.50 104.90-41.47L104.90-41.47L104.90-41.47Q108.80-39.23 108.80-35.65L108.80-35.65L108.80-35.65Q108.80-32.38 105.73-29.95L105.73-29.95L105.73-29.95Q102.91-27.78 100.61-27.78L100.61-27.78L100.61-27.78Q98.30-27.78 97.34-28.10L97.34-28.10L97.34-28.10Q97.60-30.40 97.60-31.90L97.60-31.90L97.60-31.90Q97.60-33.41 97.54-34.50L97.54-34.50L97.54-34.50Q97.47-35.58 97.15-36.61L97.15-36.61L97.15-36.61Q96.51-38.98 94.56-38.98L94.56-38.98L94.56-38.98Q92.61-38.98 90.66-37.15L90.66-37.15L90.66-37.15Q88.70-35.33 87.04-32.26L87.04-32.26L87.04-32.26Q83.26-25.28 83.26-17.02L83.26-17.02L83.26-17.02Q83.26-13.06 85.50-10.78L85.50-10.78L85.50-10.78Q87.74-8.51 92.54-8.51L92.54-8.51L92.54-8.51Q96.13-8.51 99.52-10.88L99.52-10.88L99.52-10.88Q100.99-11.90 102.08-13.25ZM132.93-4.80L132.93-4.80L132.93-4.80Q132.93-9.28 134.72-18.24L134.72-18.24L125.25-18.24L121.73 0L108.35 0L116.48-42.24L129.98-42.24L126.27-23.36L135.74-23.36L139.26-42.24L152.77-42.24L152.77-42.24Q151.87-37.50 150.72-32.19L150.72-32.19L148.54-21.76L148.54-21.76Q146.11-9.60 146.11-4.29L146.11-4.29L146.11-4.29Q146.11-2.11 146.82-0.90L146.82-0.90L146.82-0.90Q143.62 1.28 139.87 1.28L139.87 1.28L139.87 1.28Q136.13 1.28 134.53-0.51L134.53-0.51L134.53-0.51Q132.93-2.30 132.93-4.80ZM160.90 0L153.86 0L161.54-42.24L175.30-42.24L185.28-13.18L190.59-42.24L197.70-42.18L189.89 0L175.23 0L166.02-27.97L160.90 0ZM200.26-15.62L200.26-15.62L200.26-15.62Q200.26-27.71 206.53-35.33L206.53-35.33L206.53-35.33Q213.18-43.58 224.77-43.58L224.77-43.58L224.77-43.58Q233.15-43.58 237.38-39.52L237.38-39.52L237.38-39.52Q241.60-35.46 241.60-26.88L241.60-26.88L241.60-26.88Q241.60-13.82 234.94-6.21L234.94-6.21L234.94-6.21Q228.35 1.28 217.28 1.28L217.28 1.28L217.28 1.28Q208.64 1.28 204.45-3.04L204.45-3.04L204.45-3.04Q200.26-7.36 200.26-15.62ZM217.09-28.86L217.09-28.86L217.09-28.86Q214.21-17.34 214.21-8.26L214.21-8.26L214.21-8.26Q214.21-6.08 214.94-4.67L214.94-4.67L214.94-4.67Q215.68-3.26 217.63-3.26L217.63-3.26L217.63-3.26Q219.58-3.26 220.80-4.19L220.80-4.19L220.80-4.19Q222.02-5.12 222.98-7.23L222.98-7.23L222.98-7.23Q224.51-10.69 225.95-18.02L225.95-18.02L225.95-18.02Q227.39-25.34 227.52-28.38L227.52-28.38L227.52-28.38Q227.65-31.42 227.65-33.73L227.65-33.73L227.65-33.73Q227.65-36.03 226.94-37.50L226.94-37.50L226.94-37.50Q226.24-38.98 224.35-38.98L224.35-38.98L224.35-38.98Q222.46-38.98 221.18-37.82L221.18-37.82L221.18-37.82Q218.82-35.65 217.09-28.86ZM271.49-9.86L271.49-9.86L271.49-9.86Q272.70-8.32 272.70-5.34L272.70-5.34L272.70-5.34Q272.70-2.37 270.43-0.54L270.43-0.54L270.43-0.54Q268.16 1.28 264.19 1.28L264.19 1.28L264.19 1.28Q261.89 1.28 258.30 0.77L258.30 0.77L258.30 0.77Q251.26-0.32 249.25-0.32L249.25-0.32L249.25-0.32Q247.23-0.32 246.40-0.22L246.40-0.22L246.40-0.22Q245.57-0.13 244.22 0L244.22 0L251.97-42.24L265.98-42.24L259.58-7.04L259.58-7.04Q260.42-6.91 261.18-6.91L261.18-6.91L262.78-6.91L262.78-6.91Q268.16-6.91 271.49-9.86ZM277.31-15.62L277.31-15.62L277.31-15.62Q277.31-27.71 283.58-35.33L283.58-35.33L283.58-35.33Q290.24-43.58 301.82-43.58L301.82-43.58L301.82-43.58Q310.21-43.58 314.43-39.52L314.43-39.52L314.43-39.52Q318.66-35.46 318.66-26.88L318.66-26.88L318.66-26.88Q318.66-13.82 312-6.21L312-6.21L312-6.21Q305.41 1.28 294.34 1.28L294.34 1.28L294.34 1.28Q285.70 1.28 281.50-3.04L281.50-3.04L281.50-3.04Q277.31-7.36 277.31-15.62ZM294.14-28.86L294.14-28.86L294.14-28.86Q291.26-17.34 291.26-8.26L291.26-8.26L291.26-8.26Q291.26-6.08 292-4.67L292-4.67L292-4.67Q292.74-3.26 294.69-3.26L294.69-3.26L294.69-3.26Q296.64-3.26 297.86-4.19L297.86-4.19L297.86-4.19Q299.07-5.12 300.03-7.23L300.03-7.23L300.03-7.23Q301.57-10.69 303.01-18.02L303.01-18.02L303.01-18.02Q304.45-25.34 304.58-28.38L304.58-28.38L304.58-28.38Q304.70-31.42 304.70-33.73L304.70-33.73L304.70-33.73Q304.70-36.03 304-37.50L304-37.50L304-37.50Q303.30-38.98 301.41-38.98L301.41-38.98L301.41-38.98Q299.52-38.98 298.24-37.82L298.24-37.82L298.24-37.82Q295.87-35.65 294.14-28.86ZM347.71-20.61L360.64-21.76L360.64-21.76Q356.03-11.65 356.03 0.06L356.03 0.06L356.03 0.06Q354.30 1.28 351.78 1.28L351.78 1.28L351.78 1.28Q349.25 1.28 347.65 0.10L347.65 0.10L347.65 0.10Q346.05-1.09 345.73-2.30L345.73-2.30L345.73-2.30Q344.13-0.64 341.54 0.32L341.54 0.32L341.54 0.32Q338.94 1.28 336.19 1.28L336.19 1.28L336.19 1.28Q333.44 1.28 331.04 0.38L331.04 0.38L331.04 0.38Q328.64-0.51 326.78-2.50L326.78-2.50L326.78-2.50Q322.69-6.85 322.69-15.10L322.69-15.10L322.69-15.10Q322.69-27.90 329.54-35.58L329.54-35.58L329.54-35.58Q336.58-43.52 349.06-43.52L349.06-43.52L349.06-43.52Q357.70-43.52 360.77-39.04L360.77-39.04L360.77-39.04Q361.73-37.63 361.73-35.94L361.73-35.94L361.73-35.94Q361.73-34.24 360.99-32.80L360.99-32.80L360.99-32.80Q360.26-31.36 359.10-30.21L359.10-30.21L359.10-30.21Q356.35-27.65 352.96-27.65L352.96-27.65L352.96-27.65Q351.62-27.65 350.34-28.10L350.34-28.10L350.34-28.10Q350.59-30.02 350.59-32.26L350.59-32.26L350.59-32.26Q350.59-34.50 350.43-35.52L350.43-35.52L350.43-35.52Q350.27-36.54 349.89-37.38L349.89-37.38L349.89-37.38Q349.06-39.10 347.23-39.10L347.23-39.10L347.23-39.10Q345.41-39.10 343.39-37.15L343.39-37.15L343.39-37.15Q341.38-35.20 339.78-32L339.78-32L339.78-32Q336.26-24.83 336.26-16.19L336.26-16.19L336.26-16.19Q336.26-12.22 337.79-9.41L337.79-9.41L337.79-9.41Q339.46-6.34 342.40-6.34L342.40-6.34L342.40-6.34Q343.42-6.34 344.35-6.85L344.35-6.85L344.35-6.85Q345.28-7.36 345.66-7.74L345.66-7.74L347.71-20.61ZM377.02 0L363.07 0L371.20-42.24L385.28-42.24L377.02 0ZM414.02-9.86L414.02-9.86L414.02-9.86Q415.23-8.32 415.23-5.82L415.23-5.82L415.23-5.82Q415.23-2.37 412.67-0.54L412.67-0.54L412.67-0.54Q410.11 1.28 406.08 1.28L406.08 1.28L406.08 1.28Q403.78 1.28 400.26 0.77L400.26 0.77L400.26 0.77Q393.34-0.32 391.23-0.32L391.23-0.32L391.23-0.32Q389.12-0.32 388.29-0.22L388.29-0.22L388.29-0.22Q387.46-0.13 386.11 0L386.11 0L393.98-42.24L421.57-42.24L421.57-42.24Q421.57-38.34 419.68-36.29L419.68-36.29L419.68-36.29Q417.79-34.24 414.08-34.24L414.08-34.24L414.08-34.24Q410.37-34.24 406.59-35.97L406.59-35.97L404.61-24.77L416.00-24.77L416.00-24.77Q416.00-21.38 414.34-19.49L414.34-19.49L414.34-19.49Q412.67-17.60 409.89-17.60L409.89-17.60L409.89-17.60Q407.10-17.60 405.38-18.24L405.38-18.24L405.38-18.24Q403.65-18.88 403.46-19.07L403.46-19.07L401.15-6.98L401.15-6.98Q402.69-6.78 405.57-6.78L405.57-6.78L405.57-6.78Q410.50-6.78 414.02-9.86ZM446.08-29.57L446.08-29.57L446.08-29.57Q447.04-31.49 447.04-33.28L447.04-33.28L447.04-33.28Q447.04-35.07 446.85-36.06L446.85-36.06L446.85-36.06Q446.66-37.06 446.21-37.82L446.21-37.82L446.21-37.82Q445.25-39.49 443.33-39.49L443.33-39.49L443.33-39.49Q440.96-39.49 439.04-37.76L439.04-37.76L439.04-37.76Q436.99-35.97 436.99-33.15L436.99-33.15L436.99-33.15Q436.99-31.36 438.24-29.98L438.24-29.98L438.24-29.98Q439.49-28.61 441.41-27.33L441.41-27.33L441.41-27.33Q443.33-26.05 445.50-24.77L445.50-24.77L445.50-24.77Q447.68-23.49 449.60-21.95L449.60-21.95L449.60-21.95Q454.02-18.43 454.02-13.70L454.02-13.70L454.02-13.70Q454.02-10.50 452.32-7.78L452.32-7.78L452.32-7.78Q450.62-5.06 447.81-3.07L447.81-3.07L447.81-3.07Q441.66 1.28 433.54 1.28L433.54 1.28L433.54 1.28Q426.94 1.28 423.55-0.86L423.55-0.86L423.55-0.86Q420.16-3.01 420.16-6.27L420.16-6.27L420.16-6.27Q420.16-12.10 424.70-13.57L424.70-13.57L424.70-13.57Q425.98-14.02 427.94-14.02L427.94-14.02L427.94-14.02Q429.89-14.02 432.13-13.18L432.13-13.18L432.13-13.18Q431.10-10.56 431.10-8.19L431.10-8.19L431.10-8.19Q431.10-3.07 434.75-3.07L434.75-3.07L434.75-3.07Q437.12-3.07 439.07-4.80L439.07-4.80L439.07-4.80Q441.02-6.53 441.02-8.48L441.02-8.48L441.02-8.48Q441.02-10.43 439.78-11.84L439.78-11.84L439.78-11.84Q438.53-13.25 436.67-14.37L436.67-14.37L436.67-14.37Q434.82-15.49 432.67-16.58L432.67-16.58L432.67-16.58Q430.53-17.66 428.67-19.20L428.67-19.20L428.67-19.20Q424.32-22.72 424.32-28.35L424.32-28.35L424.32-28.35Q424.32-32 426.11-34.85L426.11-34.85L426.11-34.85Q427.90-37.70 430.78-39.62L430.78-39.62L430.78-39.62Q436.54-43.52 443.62-43.52L443.62-43.52L443.62-43.52Q450.69-43.52 454.11-41.41L454.11-41.41L454.11-41.41Q457.54-39.30 457.54-35.71L457.54-35.71L457.54-35.71Q457.54-32.58 455.10-30.59L455.10-30.59L455.10-30.59Q452.99-28.93 450.43-28.93L450.43-28.93L450.43-28.93Q447.87-28.93 446.08-29.57Z" fill="#444"></path></g></g><style>text {
  font-size: 64px;
  font-family: Arial Black;
  dominant-baseline: central;
  text-anchor: middle;
}</style></svg>